<svg width="24" height="25" viewBox="0 0 24 25" fill="none" xmlns="http://www.w3.org/2000/svg">
<path d="M22.1 19.2C21.8 18.9 20.9 18 20.9 18C22.1 8 17.7 4 12.1 3C6.5 4 2.1 8 3.4 18C3.4 18 2.4 19 2.2 19.2C1 20.4 1 21.7 1 21.7H12.2H23.4C23.3 21.7 23.3 20.4 22.1 19.2Z" stroke="#333333" stroke-miterlimit="10" stroke-linecap="round" stroke-linejoin="round"/>
<path d="M12.0999 2.9C12.7626 2.9 13.2999 2.36274 13.2999 1.7C13.2999 1.03726 12.7626 0.5 12.0999 0.5C11.4372 0.5 10.8999 1.03726 10.8999 1.7C10.8999 2.36274 11.4372 2.9 12.0999 2.9Z" stroke="#333333" stroke-miterlimit="10"/>
<path d="M10.5 21.7C10.3 22 10.2 22.3 10.2 22.6C10.2 23.6 11 24.5 12.1 24.5C13.2 24.5 14 23.7 14 22.6C14 22.3 13.9 21.9 13.7 21.7H10.5Z" stroke="#333333" stroke-miterlimit="10"/>
<path d="M6.50005 11.1C6.00005 12.8 5.80005 14.8 5.80005 16.7" stroke="black" stroke-miterlimit="10" stroke-linecap="round" stroke-linejoin="round"/>
<path d="M9.9999 5.90002C9.1999 6.30002 8.4999 7.00002 7.8999 7.80002" stroke="black" stroke-miterlimit="10" stroke-linecap="round" stroke-linejoin="round"/>
</svg>
