<svg width="24" height="27" viewBox="0 0 24 27" fill="none" xmlns="http://www.w3.org/2000/svg">
<path d="M22.1001 20.3385C21.8001 20.0229 20.9001 19.0761 20.9001 19.0761C22.1001 8.55625 17.8001 4.45351 12.2001 3.29633C6.6001 4.34831 2.2001 8.55625 3.5001 19.0761C3.5001 19.0761 2.5001 20.1281 2.3001 20.3385C1.1001 21.6008 1.1001 22.9684 1.1001 22.9684H12.3001H23.5001C23.3001 22.9684 23.3001 21.6008 22.1001 20.3385Z" fill="#F9C22E"/>
<path d="M22.1 20.654C21.8 20.3384 20.9 19.3917 20.9 19.3917C22.1 8.87183 17.7 4.66389 12.1 3.61191C6.50001 4.66389 2.1 8.87183 3.4 19.3917C3.4 19.3917 2.4 20.4436 2.2 20.654C1 21.9164 1 23.284 1 23.284H12.2H23.4C23.3 23.284 23.3 21.9164 22.1 20.654Z" stroke="#333333" stroke-miterlimit="10" stroke-linecap="round" stroke-linejoin="round"/>
<path d="M12.0999 3.50292C12.7627 3.50292 13.2999 2.93797 13.2999 2.24106C13.2999 1.54414 12.7627 0.979187 12.0999 0.979187C11.4372 0.979187 10.8999 1.54414 10.8999 2.24106C10.8999 2.93797 11.4372 3.50292 12.0999 3.50292Z" stroke="#333333" stroke-miterlimit="10"/>
<path d="M10.5002 23.284C10.3002 23.5995 10.2002 23.915 10.2002 24.2304C10.2002 25.282 11.0002 26.2284 12.1002 26.2284C13.2002 26.2284 14.0002 25.3871 14.0002 24.2304C14.0002 23.915 13.9002 23.4943 13.7002 23.284H10.5002Z" fill="#F9C22E" stroke="#333333" stroke-miterlimit="10"/>
<path d="M6.49976 12.133C5.99979 13.9207 5.7998 16.0238 5.7998 18.0218" stroke="black" stroke-miterlimit="10" stroke-linecap="round" stroke-linejoin="round"/>
<path d="M9.99988 6.66269C9.19989 7.0833 8.4999 7.81938 7.8999 8.66061" stroke="black" stroke-miterlimit="10" stroke-linecap="round" stroke-linejoin="round"/>
</svg>
