<?xml version="1.0" encoding="UTF-8"?>
<svg width="10px" height="16px" viewBox="0 0 10 16" version="1.1" xmlns="http://www.w3.org/2000/svg" xmlns:xlink="http://www.w3.org/1999/xlink">
    <!-- Generator: Sketch 58 (84663) - https://sketch.com -->
    <title></title>
    <desc>Created with Sketch.</desc>
    <g id="New-Final" stroke="none" stroke-width="1" fill="none" fill-rule="evenodd">
          <g id="06-Homepage_Mobile_Experiences_Expand" transform="translate(-13.000000, -20.000000)" fill="#666666" fill-rule="nonzero">
            <g id="Bitmap">
                <path d="M21.75,20 C21.822917,20 21.8906247,20.0130207 21.953125,20.0390625 C22.0156253,20.0651043 22.0729164,20.1041664 22.125,20.15625 C22.2291672,20.2604172 22.28125,20.3880201 22.28125,20.5390625 C22.28125,20.6901049 22.2291672,20.8177078 22.125,20.921875 L15,28.046875 L22.03125,35.078125 C22.1354172,35.1822922 22.1875,35.3072909 22.1875,35.453125 C22.1875,35.5989591 22.1354172,35.7239578 22.03125,35.828125 C21.9270828,35.9322922 21.7994799,35.984375 21.6484375,35.984375 C21.4973951,35.984375 21.3697922,35.9322922 21.265625,35.828125 L13.859375,28.421875 C13.7552078,28.3177078 13.703125,28.1927091 13.703125,28.046875 C13.703125,27.9010409 13.7552078,27.7760422 13.859375,27.671875 L21.375,20.15625 C21.4270836,20.1041664 21.4869788,20.0651043 21.5546875,20.0390625 C21.6223962,20.0130207 21.6874997,20 21.75,20 Z" id=""></path>
            </g>
        </g>
    </g>
</svg>
