<svg width="85" height="85" viewBox="0 0 85 85" fill="none" xmlns="http://www.w3.org/2000/svg">
<path d="M50.4688 76.4788V81.4583" stroke="#3AA757" stroke-width="2" stroke-linecap="round" stroke-linejoin="round"/>
<path d="M68.1772 83.2292C68.1772 78.5326 66.3115 74.0284 62.9905 70.7075C59.6696 67.3865 55.1654 65.5208 50.4688 65.5208C45.7723 65.5208 41.2681 67.3865 37.9471 70.7075C34.6262 74.0284 32.7605 78.5326 32.7605 83.2292" stroke="#3AA757" stroke-width="2" stroke-linecap="round" stroke-linejoin="round"/>
<path d="M50.4688 60.2084C57.3149 60.2084 62.8647 54.6586 62.8647 47.8125C62.8647 40.9665 57.3149 35.4167 50.4688 35.4167C43.6228 35.4167 38.073 40.9665 38.073 47.8125C38.073 54.6586 43.6228 60.2084 50.4688 60.2084Z" stroke="#3AA757" stroke-width="2" stroke-linecap="round" stroke-linejoin="round"/>
<path d="M29.2258 76.5956C25.7424 75.0218 21.7908 74.8315 18.1723 76.0633C14.5538 77.2951 11.5391 79.8569 9.7395 83.2292" stroke="#3AA757" stroke-width="2" stroke-linecap="round" stroke-linejoin="round"/>
<path d="M26.5342 60.2084C28.9003 60.207 31.2414 59.725 33.4157 58.7917C33.1341 56.6216 32.1795 54.5943 30.6862 52.9948C29.1929 51.3952 27.236 50.3037 25.0903 49.8738C22.9447 49.4439 20.7183 49.6972 18.724 50.5979C16.7297 51.4987 15.0678 53.0018 13.9719 54.8959C15.6032 56.5777 17.5558 57.9146 19.7138 58.8272C21.8718 59.7398 24.1912 60.2095 26.5342 60.2084V60.2084Z" stroke="#3AA757" stroke-width="2" stroke-linecap="round" stroke-linejoin="round"/>
<path d="M23.0208 70.7448C28.84 70.7448 33.5573 66.0275 33.5573 60.2083C33.5573 54.3892 28.84 49.6719 23.0208 49.6719C17.2017 49.6719 12.4844 54.3892 12.4844 60.2083C12.4844 66.0275 17.2017 70.7448 23.0208 70.7448Z" stroke="#3AA757" stroke-width="2" stroke-linecap="round" stroke-linejoin="round"/>
<path d="M75.2605 83.2291V1.77081" stroke="#3AA757" stroke-width="2" stroke-linecap="round" stroke-linejoin="round"/>
<path d="M75.2604 1.77081H54.0104C53.0711 1.77081 52.1703 2.14395 51.5061 2.80814C50.8419 3.47233 50.4688 4.37317 50.4688 5.31248V15.9375C50.4688 16.8768 50.8419 17.7776 51.5061 18.4418C52.1703 19.106 53.0711 19.4791 54.0104 19.4791H75.2604" stroke="#3AA757" stroke-width="2" stroke-linecap="round" stroke-linejoin="round"/>
<path d="M50.4688 8.85419H27.448L36.3022 17.7084L27.448 26.5625H54.0105C54.9498 26.5625 55.8506 26.1894 56.5148 25.5252C57.179 24.861 57.5522 23.9602 57.5522 23.0209V19.4792" stroke="#3AA757" stroke-width="2" stroke-linecap="round" stroke-linejoin="round"/>
<path d="M40.5662 40.375C44.2366 43.9032 49.0975 45.9254 54.1874 46.0417C57.0062 46.0512 59.8066 45.5866 62.4714 44.6675" stroke="#3AA757" stroke-width="2" stroke-linecap="round" stroke-linejoin="round"/>
</svg>
