<svg width="22" height="22" viewBox="0 0 22 22" fill="none" xmlns="http://www.w3.org/2000/svg">
<path d="M19.3448 21.4847C19.9191 22.0637 20.85 22.0642 21.4249 21.4847C21.9998 20.9052 21.9993 19.9668 21.4249 19.3877L13.1043 11L21.4249 2.61225C21.7804 2.25389 21.9155 1.75935 21.8311 1.29744C21.779 1.01152 21.6444 0.736604 21.4249 0.515315C20.8505 -0.063698 19.9196 -0.0642099 19.3448 0.515315L11.0242 8.90306L2.70356 0.515315C2.12918 -0.0636979 1.19829 -0.0642105 0.623409 0.515315C0.0485234 1.09484 0.0490313 2.03324 0.623409 2.61225L8.94401 11L0.623409 19.3877C0.0485234 19.9673 0.0490312 20.9057 0.623409 21.4847C1.19779 22.0637 2.12867 22.0642 2.70356 21.4847L11.0242 13.0969L19.3448 21.4847Z" fill="#333333"/>
</svg>
