<svg width="85" height="85" viewBox="0 0 85 85" fill="none" xmlns="http://www.w3.org/2000/svg">
<path d="M47.8124 1.77081C48.7517 1.77081 49.6526 2.14395 50.3168 2.80814C50.9809 3.47233 51.3541 4.37317 51.3541 5.31248V33.6458C51.3541 34.5851 50.9809 35.486 50.3168 36.1501C49.6526 36.8143 48.7517 37.1875 47.8124 37.1875H44.2708V44.2708L35.4166 37.1875H5.31242C4.37311 37.1875 3.47227 36.8143 2.80808 36.1501C2.14389 35.486 1.77075 34.5851 1.77075 33.6458V5.31248C1.77075 4.37317 2.14389 3.47233 2.80808 2.80814C3.47227 2.14395 4.37311 1.77081 5.31242 1.77081H47.8124Z" stroke="#3AA757" stroke-width="2" stroke-linecap="round" stroke-linejoin="round"/>
<path d="M65.5208 72.6042V81.4583" stroke="#3AA757" stroke-width="2" stroke-linecap="round" stroke-linejoin="round"/>
<path d="M83.2292 83.2292C83.2292 78.5326 81.3635 74.0284 78.0425 70.7075C74.7216 67.3865 70.2174 65.5208 65.5208 65.5208C60.8243 65.5208 56.3201 67.3865 52.9992 70.7075C49.6782 74.0284 47.8125 78.5326 47.8125 83.2292" stroke="#3AA757" stroke-width="2" stroke-linecap="round" stroke-linejoin="round"/>
<path d="M69.6539 47.8125C72.4368 47.8148 75.1911 47.2521 77.7501 46.1586C77.4217 43.6043 76.3009 41.2171 74.5454 39.3328C72.7899 37.4486 70.488 36.1619 67.9633 35.6537C65.4386 35.1456 62.8181 35.4415 60.4703 36.5C58.1225 37.5584 56.1656 39.326 54.8745 41.5544C56.793 43.5346 59.0899 45.109 61.6288 46.1841C64.1677 47.2591 66.8968 47.8129 69.6539 47.8125V47.8125Z" stroke="#3AA757" stroke-width="2" stroke-linecap="round" stroke-linejoin="round"/>
<path d="M65.5208 60.2084C72.3669 60.2084 77.9167 54.6586 77.9167 47.8125C77.9167 40.9665 72.3669 35.4167 65.5208 35.4167C58.6748 35.4167 53.125 40.9665 53.125 47.8125C53.125 54.6586 58.6748 60.2084 65.5208 60.2084Z" stroke="#3AA757" stroke-width="2" stroke-linecap="round" stroke-linejoin="round"/>
<path d="M44.2709 76.5956C40.7881 75.0256 36.8388 74.8373 33.2224 76.0688C29.606 77.3004 26.5925 79.8598 24.7917 83.2291" stroke="#3AA757" stroke-width="2" stroke-linecap="round" stroke-linejoin="round"/>
<path d="M41.5863 60.2083C43.9524 60.2069 46.2936 59.725 48.4678 58.7916C48.1816 56.6268 47.2256 54.6056 45.7337 53.0111C44.2417 51.4165 42.2886 50.3284 40.1475 49.899C38.0065 49.4697 35.7847 49.7205 33.7933 50.6165C31.8019 51.5125 30.1406 53.0087 29.0417 54.8958C30.6715 56.5749 32.6213 57.9101 34.776 58.8226C36.9306 59.7351 39.2464 60.2063 41.5863 60.2083V60.2083Z" stroke="#3AA757" stroke-width="2" stroke-linecap="round" stroke-linejoin="round"/>
<path d="M38.0728 70.7448C43.892 70.7448 48.6093 66.0275 48.6093 60.2083C48.6093 54.3892 43.892 49.6719 38.0728 49.6719C32.2537 49.6719 27.5364 54.3892 27.5364 60.2083C27.5364 66.0275 32.2537 70.7448 38.0728 70.7448Z" stroke="#3AA757" stroke-width="2" stroke-linecap="round" stroke-linejoin="round"/>
<path d="M40.7291 12.3958H12.3958" stroke="#3AA757" stroke-width="2" stroke-linecap="round" stroke-linejoin="round"/>
<path d="M30.1041 19.4792H12.3958" stroke="#3AA757" stroke-width="2" stroke-linecap="round" stroke-linejoin="round"/>
</svg>
