<svg width="19" height="25" viewBox="0 0 19 25" fill="none" xmlns="http://www.w3.org/2000/svg">
<path d="M2.5 24.7555C1.121 24.7555 0 23.6086 0 22.1999V2.26661C0 1.1391 0.897 0.222168 2 0.222168H17.5C17.776 0.222168 18 0.451146 18 0.733279C18 1.01541 17.776 1.24439 17.5 1.24439H2C1.449 1.24439 1 1.70337 1 2.26661C1 2.82986 1.449 3.28883 2 3.28883H18C18.552 3.28883 19 3.74781 19 4.31106V23.7333C19 24.2975 18.552 24.7555 18 24.7555H2.5ZM1 22.1999C1 23.0453 1.673 23.7333 2.5 23.7333H18V4.31106H2C1.643 4.31106 1.301 4.21599 1 4.03812V22.1999Z" fill="#333333"/>
<path d="M5 20.6667C4.724 20.6667 4.5 20.4377 4.5 20.1555C4.5 17.0551 6.967 14.5333 10 14.5333C13.033 14.5333 15.5 17.0551 15.5 20.1555C15.5 20.4377 15.276 20.6667 15 20.6667H5ZM14.472 19.6444C14.222 17.3311 12.306 15.5555 10 15.5555C7.693 15.5555 5.777 17.3311 5.527 19.6444H14.472Z" fill="#333333"/>
<path d="M10 14.0223C8.07 14.0223 6.5 12.4174 6.5 10.4445C6.5 9.82705 6.66 9.21577 6.962 8.67603C6.973 8.65354 6.984 8.63617 6.99 8.62594C7.618 7.54239 8.772 6.8667 10 6.8667C11.744 6.8667 13.234 8.19968 13.466 9.96812C13.467 9.97221 13.471 9.98857 13.472 10.0111C13.491 10.1695 13.5 10.3116 13.5 10.4445C13.5 12.4174 11.93 14.0223 10 14.0223ZM7.599 9.7371C7.533 9.9671 7.5 10.2032 7.5 10.4445C7.5 11.8541 8.621 13 10 13C11.281 13 12.339 12.0105 12.483 10.7409C11.999 10.881 11.506 10.9515 11.014 10.9515C9.768 10.9515 8.569 10.5222 7.599 9.7371ZM8.075 8.81812C8.888 9.5347 9.923 9.92621 11.013 9.92621C11.485 9.92621 11.948 9.85159 12.392 9.70337C12.076 8.64025 11.103 7.88892 10 7.88892C9.254 7.88892 8.549 8.23239 8.075 8.81812Z" fill="#333333"/>
</svg>
