<?xml version="1.0" encoding="UTF-8"?>
<svg width="20px" height="6px" viewBox="0 0 20 6" version="1.1" xmlns="http://www.w3.org/2000/svg" xmlns:xlink="http://www.w3.org/1999/xlink">
    <!-- Generator: Sketch 58 (84663) - https://sketch.com -->
    <title></title>
    <desc>Created with Sketch.</desc>
    <g id="New-Final" stroke="none" stroke-width="1" fill="none" fill-rule="evenodd">
        <g id="06-Homepage_Mobile_Experiences_Expand" transform="translate(-346.000000, -25.000000)" fill="#333333" fill-rule="nonzero">
            <g id="Bitmap">
                <path d="M363.558594,30.7109375 L363.03125,30.7109375 C363.018229,30.7109375 362.998698,30.7076823 362.972656,30.7011719 C362.946614,30.6946614 362.927083,30.6848959 362.914062,30.671875 C362.354164,30.5937496 361.875653,30.3463562 361.478516,29.9296875 C361.081378,29.5130188 360.869792,29.0312527 360.84375,28.484375 C360.791666,27.8723928 360.925129,27.3320336 361.244141,26.8632812 C361.563153,26.3945289 362.009112,26.0755217 362.582031,25.90625 C362.647136,25.8802082 362.71875,25.857422 362.796875,25.8378906 C362.875,25.8183593 362.953125,25.8020834 363.03125,25.7890625 L363.558594,25.7890625 C363.584636,25.7890625 363.604167,25.7923177 363.617188,25.7988281 L363.675781,25.828125 C364.183596,25.9062504 364.623045,26.1178368 364.994141,26.4628906 C365.365236,26.8079444 365.602864,27.2343725 365.707031,27.7421875 L365.724121,27.8007812 L365.724121,27.8007812 L365.736328,27.859375 C365.742839,27.8984377 365.752604,27.9374998 365.765625,27.9765625 L365.765625,28.5039062 C365.765625,28.529948 365.76237,28.5494791 365.755859,28.5625 L365.726562,28.6210938 C365.648437,29.1289088 365.440106,29.5618472 365.101562,29.9199219 C364.811382,30.2268431 364.463809,30.4452726 364.058834,30.5752152 L363.705078,30.671875 C363.659505,30.6848959 363.610677,30.6979166 363.558594,30.7109375 Z M348.412109,25.828125 L348.558594,25.7890625 L348.558594,25.7890625 L349.085938,25.7890625 C349.098958,25.7890625 349.118489,25.7923177 349.144531,25.7988281 C349.170573,25.8053386 349.190104,25.8151041 349.203125,25.828125 C349.763024,25.9062504 350.241534,26.1568989 350.638672,26.5800781 C351.035809,27.0032573 351.247396,27.4882785 351.273438,28.0351562 C351.3125,28.6341176 351.172528,29.1712216 350.853516,29.6464844 C350.534504,30.1217472 350.088545,30.4440096 349.515625,30.6132812 L349.085938,30.7109375 L349.085938,30.7109375 L348.558594,30.7109375 C348.532552,30.7109375 348.513021,30.7076823 348.5,30.7011719 L348.441406,30.671875 C347.933591,30.5807287 347.513674,30.3886733 347.181641,30.0957031 C346.849608,29.8027329 346.60547,29.4088566 346.449219,28.9140625 L346.427246,28.8164062 L346.427246,28.8164062 L346.400391,28.71875 C346.380859,28.6536455 346.364583,28.588542 346.351562,28.5234375 L346.351562,27.9765625 L346.356445,27.9545899 L346.356445,27.9545899 L346.385742,27.9008789 L346.385742,27.9008789 L346.390625,27.8789062 C346.46875,27.3710912 346.677082,26.9348977 347.015625,26.5703125 C347.354168,26.2057273 347.777341,25.9648443 348.285156,25.8476562 C348.324219,25.8476562 348.366536,25.8411459 348.412109,25.828125 Z M355.516602,25.8476562 L355.785156,25.7890625 L355.785156,25.7890625 L356.332031,25.7890625 C356.345052,25.7890625 356.361328,25.7923177 356.380859,25.7988281 L356.449219,25.828125 L356.449219,25.828125 C357.009117,25.9192713 357.487628,26.1764302 357.884766,26.5996094 C358.281903,27.0227886 358.493489,27.5078098 358.519531,28.0546875 C358.545573,28.6796906 358.389325,29.2298153 358.050781,29.7050781 C357.712238,30.1803409 357.256513,30.4895826 356.683594,30.6328125 L356.600586,30.6523438 L356.600586,30.6523438 L356.332031,30.7109375 L356.332031,30.7109375 L355.785156,30.7109375 L355.763184,30.7060547 L355.763184,30.7060547 L355.70459,30.6767578 L355.70459,30.6767578 L355.667969,30.671875 C355.10807,30.5937496 354.629559,30.3398459 354.232422,29.9101562 C353.835284,29.4804666 353.623698,28.9921902 353.597656,28.4453125 C353.571614,27.8203094 353.727863,27.2701847 354.066406,26.7949219 C354.40495,26.3196591 354.860674,26.0104174 355.433594,25.8671875 L355.516602,25.8476562 L355.516602,25.8476562 Z" id=""></path>
            </g>
        </g>
    </g>
</svg>