<svg width="20" height="17" viewBox="0 0 20 17" fill="none" xmlns="http://www.w3.org/2000/svg">
<path d="M19.1666 3.52328L17.4999 3.10661L18.3333 1.43994L16.2799 2.02328C15.7468 1.52593 15.0798 1.19557 14.3611 1.07295C13.6424 0.950338 12.9035 1.04084 12.2357 1.33329C11.5678 1.62574 11.0002 2.10734 10.6029 2.71864C10.2056 3.32995 9.99598 4.04421 9.99992 4.77328V5.60661C7.05075 6.21494 4.47158 4.60661 2.08325 1.85661C1.66659 4.07883 2.08325 5.7455 3.33325 6.85661L0.833252 6.43994C1.17075 8.16411 1.96825 9.52328 4.16658 9.77328L2.08325 10.6066C2.91659 12.2733 4.22158 12.5316 6.24992 12.6899C4.67235 13.8171 2.77161 14.402 0.833252 14.3566C11.4624 19.0808 17.4999 12.1366 17.4999 6.02328V4.91661L19.1666 3.52328Z" stroke="#3AA757" stroke-linecap="round" stroke-linejoin="round"/>
</svg>
