<svg width="20" height="20" viewBox="0 0 20 20" fill="none" xmlns="http://www.w3.org/2000/svg">
<g clip-path="url(#clip0)">
<path d="M10.4167 19.5833H1.25008C1.02907 19.5833 0.817106 19.4955 0.660826 19.3392C0.504545 19.1829 0.416748 18.971 0.416748 18.75V1.24996C0.416748 1.02895 0.504545 0.816984 0.660826 0.660704C0.817106 0.504423 1.02907 0.416626 1.25008 0.416626H18.7501C18.9711 0.416626 19.1831 0.504423 19.3393 0.660704C19.4956 0.816984 19.5834 1.02895 19.5834 1.24996V18.75C19.5834 18.971 19.4956 19.1829 19.3393 19.3392C19.1831 19.4955 18.9711 19.5833 18.7501 19.5833H13.7501V12.0833H15.8826C15.9847 12.0841 16.0835 12.0473 16.1604 11.9801C16.2372 11.9128 16.2866 11.8196 16.2992 11.7183L16.6117 9.21829C16.6191 9.1594 16.6138 9.09961 16.5962 9.04294C16.5786 8.98626 16.549 8.934 16.5096 8.88966C16.4701 8.84532 16.4217 8.80991 16.3674 8.78582C16.3132 8.76173 16.2544 8.7495 16.1951 8.74996H13.7501V7.65413C13.7505 7.28171 13.8987 6.92468 14.1621 6.66142C14.4256 6.39816 14.7827 6.25018 15.1551 6.24996H16.6667C16.7773 6.24996 16.8832 6.20606 16.9614 6.12792C17.0395 6.04978 17.0834 5.9438 17.0834 5.83329V3.33329C17.0834 3.22279 17.0395 3.11681 16.9614 3.03867C16.8832 2.96052 16.7773 2.91663 16.6667 2.91663H15.1551C13.8989 2.91795 12.6946 3.41748 11.8063 4.30562C10.918 5.19376 10.4183 6.39799 10.4167 7.65413V8.74996H8.33342C8.22291 8.74996 8.11693 8.79386 8.03879 8.872C7.96065 8.95014 7.91675 9.05612 7.91675 9.16663V11.6666C7.91675 11.7771 7.96065 11.8831 8.03879 11.9613C8.11693 12.0394 8.22291 12.0833 8.33342 12.0833H10.4167V19.5833Z" stroke="#ffffff" stroke-linecap="round" stroke-linejoin="round"/>
</g>
<defs>
<clipPath id="clip0">
<rect width="20" height="20" fill="white"/>
</clipPath>
</defs>
</svg>
