<svg width="24" height="24" viewBox="0 0 24 24" fill="none" xmlns="http://www.w3.org/2000/svg">
<path d="M3 24C2.742 24 2.523 23.799 2.502 23.542L2.04 18H0.5C0.224 18 0 17.776 0 17.5V14C0 10.967 2.467 8.5 5.5 8.5C8.533 8.5 11 10.967 11 14V17.5C11 17.776 10.776 18 10.5 18H8.96L8.498 23.542C8.477 23.799 8.258 24 8 24H3ZM7.54 23L7.957 18H3.043L3.46 23H5V19.5C5 19.224 5.224 19 5.5 19C5.776 19 6 19.224 6 19.5V23H7.54ZM10 17V14C10 11.697 8.263 9.784 6 9.534V14C6 14.276 5.776 14.5 5.5 14.5C5.224 14.5 5 14.276 5 14V9.534C2.737 9.784 1 11.697 1 14V17H2V14.5C2 14.224 2.224 14 2.5 14C2.776 14 3 14.224 3 14.5V17H8V14.5C8 14.224 8.224 14 8.5 14C8.776 14 9 14.224 9 14.5V17H10Z" fill="#333333"/>
<path d="M5.5 8C3.294 8 1.5 6.206 1.5 4C1.5 3.363 1.649 2.75 1.943 2.178C2.637 0.833 3.999 0 5.5 0C7.451 0 9.149 1.456 9.448 3.386C9.451 3.399 9.457 3.425 9.459 3.458C9.487 3.661 9.5 3.834 9.5 4C9.5 6.206 7.706 8 5.5 8ZM2.61 3.198C2.537 3.46 2.5 3.728 2.5 4C2.5 5.654 3.846 7 5.5 7C7.091 7 8.396 5.755 8.494 4.188C7.854 4.395 7.188 4.5 6.509 4.5C5.097 4.5 3.73 4.04 2.61 3.198ZM6.514 3.5C7.15 3.5 7.779 3.388 8.381 3.168C8.015 1.9 6.835 1 5.5 1C4.515 1 3.615 1.473 3.051 2.275C4.026 3.067 5.241 3.5 6.494 3.5H6.501C6.503 3.5 6.512 3.5 6.514 3.5Z" fill="#333333"/>
<path d="M13.5 18C13.224 18 13 17.776 13 17.5C13 17.224 13.224 17 13.5 17H21.5C22.327 17 23 16.327 23 15.5V2.5C23 1.673 22.327 1 21.5 1H10C9.724 1 9.5 0.776 9.5 0.5C9.5 0.224 9.724 0 10 0H21.5C22.878 0 24 1.121 24 2.5V15.5C24 16.878 22.878 18 21.5 18H13.5Z" fill="#333333"/>
</svg>
