<svg width="6" height="10" viewBox="0 0 6 10" fill="none" xmlns="http://www.w3.org/2000/svg">
<path d="M5.31635 7.53291L2.52469 9.43749C2.48904 9.46361 2.44602 9.47771 2.40184 9.47777C2.35765 9.47783 2.31459 9.46384 2.27888 9.43782C2.24317 9.4118 2.21665 9.3751 2.20317 9.33303C2.18968 9.29095 2.18992 9.24568 2.20385 9.20374L3.24552 6.07458L0.756771 4.01124C0.724403 3.98356 0.701296 3.94663 0.690562 3.90541C0.679829 3.8642 0.681985 3.82069 0.69674 3.78073C0.711495 3.74078 0.73814 3.70631 0.773085 3.68197C0.808031 3.65762 0.849598 3.64457 0.892187 3.64458H3.87135L4.92635 0.654577C4.94127 0.614913 4.96793 0.580741 5.00277 0.55662C5.03761 0.5325 5.07898 0.519577 5.12135 0.519577C5.16373 0.519577 5.2051 0.5325 5.23994 0.55662C5.27478 0.580741 5.30144 0.614913 5.31635 0.654577V7.53291Z" fill="#F2994A"/>
</svg>
