<svg width="24" height="24" viewBox="0 0 24 24" fill="none" xmlns="http://www.w3.org/2000/svg">
<path d="M12 16C11.7 16 11.5 15.8 11.5 15.5V14.4C11.5 13.7 12 13.1 12.7 12.9C14.2 12.6 15.2 11.2 15.2 9.7C15.2 8.8 14.9 8 14.2 7.4C13.6 6.8 12.8 6.5 11.9 6.5C11 6.5 10.2 6.8 9.60005 7.5C9.00005 8.2 8.70005 8.9 8.80005 9.7C8.80005 10 8.60005 10.2 8.30005 10.2C8.00005 10.2 7.80005 10 7.80005 9.7C7.80005 8.6 8.20005 7.5 9.00005 6.7C9.80005 5.9 10.9 5.5 12 5.5C13.1 5.5 14.2 5.9 15 6.7C15.8 7.5 16.2 8.6 16.2 9.7C16.2 11.7 14.8 13.4 12.9 13.9C12.7 13.9 12.5 14.2 12.5 14.4V15.5C12.5 15.8 12.3 16 12 16Z" fill="#333333"/>
<path d="M12 19C12.4418 19 12.8 18.6419 12.8 18.2C12.8 17.7582 12.4418 17.4 12 17.4C11.5581 17.4 11.2 17.7582 11.2 18.2C11.2 18.6419 11.5581 19 12 19Z" fill="#333333"/>
<path d="M12 24C5.4 24 0 18.6 0 12C0 5.4 5.4 0 12 0C18.6 0 24 5.4 24 12C24 18.6 18.6 24 12 24ZM12 1C5.9 1 1 5.9 1 12C1 18.1 5.9 23 12 23C18.1 23 23 18.1 23 12C23 5.9 18.1 1 12 1Z" fill="#333333"/>
</svg>
