<?xml version="1.0" encoding="UTF-8"?>
<svg width="25px" height="19px" viewBox="0 0 25 19" version="1.1" xmlns="http://www.w3.org/2000/svg" xmlns:xlink="http://www.w3.org/1999/xlink">
    <!-- Generator: Sketch 54.1 (76490) - https://sketchapp.com -->
    <title>flaticon1568627560-eps</title>
    <desc>Created with Sketch.</desc>
    <defs>
        <polygon id="path-1" points="0.00387596899 0.0489491525 24.9768226 0.0489491525 24.9768226 18.9998712 0.00387596899 18.9998712"></polygon>
    </defs>
    <g id="Updated" stroke="none" stroke-width="1" fill="none" fill-rule="evenodd">
        <g id="flaticon1568627560-eps">
            <g id="Group-3">
                <mask id="mask-2" fill="white">
                    <use xlink:href="#path-1"></use>
                </mask>
                <g id="Clip-2"></g>
                <path d="M21.9277132,0.0489491525 L3.05432817,0.0489491525 C1.36944444,0.0489491525 0,1.41430847 0,3.0941661 L0,15.9549119 C0,17.6345119 1.36944444,18.9998712 3.05432817,18.9998712 L21.922416,18.9998712 C23.6072997,18.9998712 24.9768088,17.6345119 24.9768088,15.9549119 L24.9768088,3.09918983 C24.9818475,1.41958983 23.6124031,0.0489491525 21.9277132,0.0489491525 Z M23.5866279,15.9549119 C23.5866279,16.8669119 22.8425065,17.608878 21.9277132,17.608878 L3.05432817,17.608878 C2.13959948,17.608878 1.39547804,16.8669119 1.39547804,15.9549119 L1.39547804,3.09918983 C1.39547804,2.18718983 2.13959948,1.44528814 3.05432817,1.44528814 L21.922416,1.44528814 C22.8372093,1.44528814 23.5813307,2.18718983 23.5813307,3.09918983 L23.5813307,15.9549119 L23.5866279,15.9549119 Z" id="Fill-1" fill="#000000" mask="url(#mask-2)"></path>
            </g>
            <path d="M15.751938,9.36481017 L21.8603359,3.90305085 C22.1447674,3.64542373 22.170478,3.20739322 21.9120801,2.91885085 C21.6536822,2.63552542 21.2143411,2.60989153 20.9251938,2.86751864 L12.501292,10.4056237 L10.8577519,8.94210847 C10.8527132,8.93708475 10.8476744,8.93206102 10.8476744,8.92677966 C10.8113049,8.89077627 10.7752584,8.85986102 10.7338501,8.82888136 L4.04657623,2.86223729 C3.75710594,2.60461017 3.31776486,2.63024407 3.05936693,2.91885085 C2.80096899,3.20739322 2.82700258,3.64542373 3.11614987,3.90305085 L9.29728682,9.41105424 L3.14218346,15.156139 C2.8630491,15.4190475 2.84741602,15.8570136 3.11111111,16.140339 C3.25064599,16.2844814 3.43662791,16.3619627 3.62260982,16.3619627 C3.79321705,16.3619627 3.96375969,16.3000678 4.09825581,16.176278 L10.3462532,10.3490102 L12.0412145,11.8585119 C12.1757106,11.9770203 12.3410207,12.0336339 12.5065891,12.0336339 C12.6718346,12.0336339 12.8424419,11.9719966 12.9716408,11.8534881 L14.7133075,10.2974203 L20.9251938,16.1815593 C21.0594315,16.3103729 21.2350775,16.3722678 21.4056202,16.3722678 C21.5916021,16.3722678 21.7725452,16.3000678 21.9120801,16.1556678 C22.1757752,15.8776881 22.1654393,15.4343763 21.8863695,15.1717254 L15.751938,9.36481017 Z" id="Fill-4" fill="#000000"></path>
        </g>
    </g>
</svg>