<svg width="18" height="20" viewBox="0 0 18 20" fill="none" xmlns="http://www.w3.org/2000/svg">
  <path d="M17.2837 15.9027L13.6203 12.636C13.2946 12.3456 12.7861 12.3714 12.4698 12.6943L11.002 14.193C10.7297 14.471 10.3039 14.5366 9.97891 14.3454C8.20454 13.3016 7.12326 11.9774 6.85567 11.6278L6.8582 11.6257C6.8582 11.6257 6.84335 11.6085 6.82236 11.5836C6.80289 11.5574 6.78949 11.539 6.78949 11.539L6.78695 11.5411C6.50758 11.2007 5.46521 9.84575 4.85392 7.87996C4.74196 7.51988 4.903 7.12036 5.2359 6.91866L7.02998 5.83169C7.41659 5.59747 7.55774 5.10827 7.34933 4.72489L5.00509 0.412586C4.81253 0.0583775 4.3841 -0.0923974 3.99565 0.0578775C2.84434 0.503277 0.605324 1.542 0.191107 3.01191C-0.367567 4.99445 0.164499 9.68334 3.5982 14.0687L3.59581 14.0706C3.60747 14.0853 3.61967 14.0984 3.63137 14.113C3.64295 14.1277 3.65286 14.1426 3.66453 14.1573L3.66692 14.1554C7.15278 18.4994 11.5964 20.0877 13.6542 19.9963C15.1798 19.9285 16.7022 17.9857 17.3986 16.9664C17.6336 16.6225 17.5846 16.171 17.2837 15.9027Z" fill="white"/>
</svg>
