<svg width="37" height="36" viewBox="0 0 37 36" fill="none" xmlns="http://www.w3.org/2000/svg">
<path d="M3.40616 29.577C2.04726 29.577 0.941406 28.4712 0.941406 27.1123V2.46475C0.941406 1.10585 2.04726 0 3.40616 0H28.0537C29.4126 0 30.5185 1.10585 30.5185 2.46475V27.1123C30.5185 28.4712 29.4126 29.577 28.0537 29.577H3.40616ZM2.58458 27.1123C2.58458 27.5658 2.95265 27.9339 3.40616 27.9339H28.0537C28.5072 27.9339 28.8753 27.5658 28.8753 27.1123V24.6475H2.58458V27.1123ZM28.8753 23.0044V2.46475C28.8753 2.01124 28.5072 1.64317 28.0537 1.64317H3.40616C2.95265 1.64317 2.58458 2.01124 2.58458 2.46475V23.0044H6.22748L10.0626 16.6141C10.1941 16.343 10.4225 16.085 10.692 15.9009C11.0107 15.684 11.3821 15.569 11.765 15.569C11.8866 15.569 12.0098 15.5805 12.1314 15.6035C12.6342 15.7005 13.0696 15.9864 13.3572 16.4103L15.5245 19.0065L18.4132 12.6557C18.8437 11.7076 19.4714 11.5646 19.8066 11.5646C19.8116 11.5646 19.8428 11.5646 19.8477 11.5646C20.1238 11.5712 20.8139 11.6994 21.2165 12.7247L25.326 22.9994H28.8753V23.0044ZM23.5547 23.0044L19.7918 13.5956L16.4792 20.8797C16.3625 21.1377 16.1226 21.3152 15.8417 21.3546C15.8039 21.3596 15.7677 21.3612 15.7332 21.3612C15.4884 21.3612 15.2567 21.2528 15.1006 21.0654L12.0443 17.3995C11.9424 17.2549 11.8718 17.2286 11.8192 17.2188C11.8011 17.2155 11.783 17.2138 11.765 17.2138C11.7107 17.2138 11.6582 17.2303 11.6138 17.2615C11.5727 17.2894 11.5398 17.3272 11.5201 17.3716L8.14342 23.0044H23.5547Z" fill="#3AA757"/>
<path d="M32.5443 35.9998C32.4704 35.9998 32.3948 35.9965 32.3192 35.99L9.41179 33.9064C9.19325 33.8867 8.99607 33.7832 8.85475 33.6139C8.71509 33.4447 8.64771 33.2327 8.66743 33.0142C8.70523 32.5952 9.06508 32.2665 9.48409 32.2665C9.49723 32.2665 9.54817 32.2698 9.56132 32.2698L32.4671 34.3534C32.4967 34.3567 32.523 34.3567 32.5493 34.3567C32.9715 34.3567 33.3199 34.0379 33.361 33.6139L35.3016 12.3415C35.3426 11.8929 35.0107 11.4936 34.5621 11.4509L32.9223 11.3014C32.472 11.2603 32.1368 10.8593 32.1779 10.4091C32.2173 9.98353 32.5723 9.66147 33.0011 9.66147C33.011 9.66147 33.0521 9.66311 33.0619 9.66311L34.7133 9.81264C36.0624 9.94081 37.0581 11.142 36.9382 12.4877L34.9976 33.7635C34.8743 35.0402 33.8211 35.9998 32.5443 35.9998Z" fill="#3AA757"/>
<path d="M9.15743 11.5023C7.34502 11.5023 5.87109 10.0284 5.87109 8.21596C5.87109 6.40355 7.34502 4.92963 9.15743 4.92963C10.9698 4.92963 12.4438 6.40355 12.4438 8.21596C12.4438 10.0284 10.9698 11.5023 9.15743 11.5023ZM9.15743 6.5728C8.25205 6.5728 7.51426 7.31058 7.51426 8.21596C7.51426 9.12135 8.25205 9.85913 9.15743 9.85913C10.0628 9.85913 10.8006 9.12135 10.8006 8.21596C10.8006 7.31058 10.0628 6.5728 9.15743 6.5728Z" fill="#3AA757"/>
</svg>
