<svg width="9" height="18" viewBox="0 0 9 18" fill="none" xmlns="http://www.w3.org/2000/svg">
  <path d="M5.95849 8.99484L1.00135 16.0974C0.83986 16.3292 0.774683 16.6123 0.817523 16.8945C0.860735 17.176 1.00611 17.4231 1.22656 17.59C1.4481 17.7581 1.72018 17.8265 1.98933 17.7822C2.25958 17.7375 2.49724 17.5862 2.65873 17.3551L8.05419 9.6239C8.18273 9.4398 8.25084 9.2221 8.25084 8.99485C8.25084 8.76759 8.18273 8.54989 8.05419 8.36579L2.65874 0.634924C2.49725 0.404232 2.25959 0.252989 1.98934 0.2083C1.93551 0.199514 1.88131 0.195312 1.82785 0.195312C1.61253 0.195312 1.4038 0.265588 1.22693 0.400411C1.00538 0.56808 0.860004 0.815962 0.817523 1.09783C0.774683 1.37971 0.840233 1.66235 1.00135 1.89304L5.95849 8.99484Z" fill="#3AA757"/>
</svg>
