<?xml version="1.0" encoding="UTF-8"?>
<svg width="20px" height="20px" viewBox="0 0 20 20" version="1.1" xmlns="http://www.w3.org/2000/svg" xmlns:xlink="http://www.w3.org/1999/xlink">
    <!-- Generator: Sketch 54.1 (76490) - https://sketchapp.com -->
    <title>flaticon1565251184-eps</title>
    <desc>Created with Sketch.</desc>
    <g id="Symbols" stroke="none" stroke-width="1" fill="none" fill-rule="evenodd">
        <g id="Bitmap" transform="translate(-369.000000, -26.000000)" fill="#666">
            <path d="M388.827014,44.9798809 L383.965652,40.1196394 C385.269648,38.6208076 386.05912,36.665048 386.05912,34.5276926 C386.05912,29.8226612 382.231297,26 377.52956,26 C372.823498,26 369,29.826985 369,34.5276926 C369,39.2284001 372.827823,43.0553851 377.52956,43.0553851 C379.667384,43.0553851 381.623572,42.2660857 383.122732,40.9623754 L387.984038,45.8226723 C388.099473,45.9378605 388.254772,46 388.405526,46 C388.556279,46 388.711578,45.9424059 388.827014,45.8226723 C389.057662,45.5920189 389.057662,45.2105343 388.827014,44.9798809 Z M370.193163,34.5276926 C370.193163,30.4833024 373.484284,27.1974468 377.525235,27.1974468 C381.57029,27.1974468 384.857087,30.4878479 384.857087,34.5276926 C384.857087,38.5675372 381.57029,41.8624838 377.525235,41.8624838 C373.484284,41.8624838 370.193163,38.5720827 370.193163,34.5276926 Z" id="flaticon1565251184-eps"></path>
        </g>
    </g>
</svg>
