<svg width="14" height="14" viewBox="0 0 14 14" fill="none" xmlns="http://www.w3.org/2000/svg">
  <path opacity="0.8" fill-rule="evenodd" clip-rule="evenodd" d="M13.8789 13.2859L10.476 9.88375C11.3888 8.83457 11.9414 7.46553 11.9414 5.96938C11.9414 2.67586 9.26191 0 5.97069 0C2.67645 0 0 2.67889 0 5.96938C0 9.25988 2.67948 11.9388 5.97069 11.9388C7.46717 11.9388 8.8365 11.3863 9.88591 10.4737L13.2888 13.8759C13.3696 13.9565 13.4783 14 13.5839 14C13.6894 14 13.7981 13.9597 13.8789 13.8759C14.0404 13.7144 14.0404 13.4474 13.8789 13.2859ZM0.835938 5.96925C0.835938 3.13818 3.13971 0.83809 5.96837 0.83809C8.7999 0.83809 11.1006 3.14136 11.1006 5.96925C11.1006 8.79713 8.7999 11.1036 5.96837 11.1036C3.13971 11.1036 0.835938 8.80031 0.835938 5.96925Z" fill="black" fill-opacity="0.8"/>
</svg>
