<svg width="10" height="10" viewBox="0 0 10 10" fill="none" xmlns="http://www.w3.org/2000/svg">
<path d="M4.8055 0.654577C4.82042 0.614913 4.84708 0.580741 4.88192 0.55662C4.91676 0.5325 4.95813 0.519577 5.0005 0.519577C5.04288 0.519577 5.08425 0.5325 5.11909 0.55662C5.15393 0.580741 5.18059 0.614913 5.1955 0.654577L6.25009 3.64458H9.22842C9.27101 3.64457 9.31258 3.65762 9.34752 3.68197C9.38247 3.70631 9.40911 3.74078 9.42387 3.78073C9.43862 3.82069 9.44078 3.8642 9.43005 3.90541C9.41931 3.94663 9.3962 3.98356 9.36384 4.01124L6.87509 6.07458L7.91675 9.20374C7.93069 9.24568 7.93093 9.29095 7.91744 9.33303C7.90396 9.3751 7.87744 9.4118 7.84173 9.43782C7.80602 9.46384 7.76296 9.47783 7.71877 9.47777C7.67459 9.47771 7.63156 9.46361 7.59592 9.43749L5.00009 7.53291L2.403 9.43749C2.36734 9.4631 2.32449 9.47678 2.28059 9.47658C2.23668 9.47639 2.19396 9.46232 2.15852 9.4364C2.12309 9.41048 2.09674 9.37403 2.08326 9.33225C2.06977 9.29047 2.06983 9.24549 2.08342 9.20374L3.12509 6.07458L0.635921 4.01124C0.603553 3.98356 0.580446 3.94663 0.569713 3.90541C0.55898 3.8642 0.561136 3.82069 0.57589 3.78073C0.590645 3.74078 0.61729 3.70631 0.652236 3.68197C0.687181 3.65762 0.728748 3.64457 0.771338 3.64458H3.75009L4.8055 0.654577Z" fill="#F2994A"/>
</svg>
