<svg width="18" height="25" viewBox="0 0 18 25" fill="none" xmlns="http://www.w3.org/2000/svg">
<path d="M4.5 19.8765C4.46 19.8765 4.42 19.8714 4.381 19.8622C4.25 19.8285 4.141 19.7467 4.072 19.6291C4.003 19.5116 3.983 19.3746 4.015 19.2427C4.206 18.4556 4.502 17.6961 4.895 16.9826C4.316 16.2302 4 15.301 4 14.3473C4 11.9901 5.876 10.0724 8.182 10.0724C9.688 9.97424 11.153 9.56228 12.521 8.8498C12.668 8.77824 12.813 8.74451 12.962 8.74451C13.346 8.74451 13.701 8.97348 13.866 9.32717C13.94 9.48664 13.973 9.66348 13.96 9.83931C13.415 17.7666 9.738 18.6222 8.182 18.6222C7.26 18.6222 6.368 18.3084 5.637 17.7319C5.351 18.2962 5.132 18.885 4.986 19.4881C4.93 19.717 4.731 19.8765 4.5 19.8765ZM6.156 16.8497C6.728 17.3353 7.439 17.6 8.182 17.6C9.458 17.6 12.477 16.8364 12.963 9.76673C11.482 10.5385 9.881 10.9862 8.213 11.0936C6.435 11.0946 5 12.5543 5 14.3473C5 14.9576 5.164 15.5423 5.478 16.0554C6.438 14.7163 7.724 13.6778 9.216 13.0389C9.278 13.0123 9.342 12.999 9.409 12.999C9.611 12.999 9.793 13.1227 9.871 13.3128C9.977 13.5725 9.857 13.873 9.603 13.9814C8.209 14.5794 7.021 15.5678 6.156 16.8497Z" fill="#333333"/>
<path d="M2.5 24.7555C1.121 24.7555 0 23.6086 0 22.1999V2.77772C0 1.36808 1.121 0.222168 2.5 0.222168H16C16.552 0.222168 17 0.681146 17 1.24439V4.31106C17.552 4.31106 18 4.77003 18 5.33328V23.7333C18 24.2975 17.552 24.7555 17 24.7555H2.5ZM1 22.1999C1 23.0453 1.673 23.7333 2.5 23.7333H17V5.33328H2.5C1.951 5.33328 1.428 5.15132 1 4.82217V22.1999ZM16 4.31106V1.24439H2.5C1.673 1.24439 1 1.93235 1 2.77772C1 3.6231 1.673 4.31106 2.5 4.31106H14V3.28883H2.5C2.224 3.28883 2 3.05986 2 2.77772C2 2.49559 2.224 2.26661 2.5 2.26661H14C14.552 2.26661 15 2.72559 15 3.28883V4.31106H16Z" fill="#333333"/>
</svg>
