<svg width="85" height="85" viewBox="0 0 85 85" fill="none" xmlns="http://www.w3.org/2000/svg">
<path d="M38.7777 71.5912C34.4746 66.4841 23.1165 61.4975 5.25587 60.9202C4.32642 60.9053 3.44007 60.5256 2.78809 59.863C2.13611 59.2004 1.77076 58.3081 1.77087 57.3785V7.12226C1.7708 6.65175 1.86447 6.18594 2.04643 5.75203C2.22839 5.31813 2.49498 4.92483 2.83064 4.59511C3.1663 4.26539 3.56429 4.00585 4.00137 3.83166C4.43845 3.65747 4.90586 3.57212 5.37629 3.58059C28.5388 4.35267 40.7292 12.5516 40.7292 18.7708C40.7292 12.5693 54.4142 4.41288 76.068 3.58413C76.5396 3.57375 77.0085 3.6577 77.4472 3.83103C77.886 4.00436 78.2856 4.26359 78.6228 4.59351C78.96 4.92342 79.2279 5.31737 79.4107 5.75222C79.5935 6.18707 79.6877 6.65407 79.6875 7.1258V53.1002" stroke="#3AA757" stroke-width="2" stroke-linecap="round" stroke-linejoin="round"/>
<path d="M40.7291 18.7744V58.4127" stroke="#3AA757" stroke-width="2" stroke-linecap="round" stroke-linejoin="round"/>
<path d="M31.8749 21.2252C25.5603 18.9702 19.0079 17.4468 12.3462 16.6848" stroke="#3AA757" stroke-width="2" stroke-linecap="round" stroke-linejoin="round"/>
<path d="M51.3541 37.1627C57.6699 34.9074 64.2235 33.384 70.8864 32.6223" stroke="#3AA757" stroke-width="2" stroke-linecap="round" stroke-linejoin="round"/>
<path d="M31.8749 37.1627C25.5603 34.9077 19.0079 33.3843 12.3462 32.6223" stroke="#3AA757" stroke-width="2" stroke-linecap="round" stroke-linejoin="round"/>
<path d="M31.875 51.3294C25.5023 49.0531 18.8892 47.5165 12.1656 46.75" stroke="#3AA757" stroke-width="2" stroke-linecap="round" stroke-linejoin="round"/>
<path d="M51.3541 21.2252C57.7287 18.9469 64.3444 17.4103 71.0706 16.6459" stroke="#3AA757" stroke-width="2" stroke-linecap="round" stroke-linejoin="round"/>
<path d="M83.2291 81.4336V77.5377C83.2432 74.902 82.2393 72.3626 80.4267 70.4491C78.6141 68.5355 76.1328 67.3955 73.5002 67.2669H65.5208V50.444C65.5208 49.2699 65.0544 48.1438 64.2241 47.3136C63.3939 46.4833 62.2679 46.0169 61.0937 46.0169C59.9196 46.0169 58.7935 46.4833 57.9633 47.3136C57.1331 48.1438 56.6666 49.2699 56.6666 50.444V76.1211L51.2798 68.5454C51.0574 68.1045 50.7495 67.7122 50.3739 67.3916C49.9984 67.0709 49.5627 66.8283 49.0924 66.6778C48.622 66.5273 48.1264 66.472 47.6345 66.5152C47.1425 66.5583 46.6641 66.699 46.2271 66.929C45.7901 67.159 45.4033 67.4738 45.0893 67.8549C44.7752 68.236 44.5402 68.6759 44.398 69.1488C44.2558 69.6217 44.2092 70.1182 44.2609 70.6093C44.3127 71.1004 44.4617 71.5763 44.6994 72.0092L49.6577 81.4336" stroke="#3AA757" stroke-width="2" stroke-linecap="round" stroke-linejoin="round"/>
</svg>
