<svg width="20" height="20" viewBox="0 0 20 20" fill="none" xmlns="http://www.w3.org/2000/svg">
  <path d="M10 0C4.48588 0 0 4.48588 0 10C0 15.5141 4.48588 20 10 20C15.5141 20 20 15.5141 20 10C20 4.48588 15.5141 0 10 0ZM13.7441 2.84862C13.9533 2.67389 14.2515 2.65373 14.4808 2.79822C16.5238 4.07175 17.936 6.15424 18.3552 8.51227C18.3871 8.69287 18.3375 8.87769 18.2182 9.0205C18.0973 9.16415 17.92 9.24732 17.7335 9.24732H15.2663C14.9404 9.24732 14.669 8.99026 14.648 8.66264C14.5279 6.78428 14.1541 5.01765 13.566 3.55343C13.4644 3.30058 13.5341 3.02419 13.7441 2.84862ZM6.25672 17.1514C6.13995 17.2488 5.9963 17.2984 5.85181 17.2984C5.73672 17.2984 5.62163 17.2673 5.51915 17.2035C3.4753 15.9274 2.06233 13.8449 1.64398 11.4877C1.61206 11.3071 1.66162 11.1223 1.78091 10.9795C1.90187 10.8358 2.07912 10.7527 2.26562 10.7527H4.73369C5.06047 10.7527 5.33181 11.0097 5.35113 11.339C5.4721 13.2166 5.84592 14.9832 6.43313 16.4474C6.53477 16.6994 6.46505 16.9758 6.25672 17.1514ZM6.43313 3.55343C5.84593 5.01848 5.47211 6.78511 5.35198 8.66263C5.33098 8.99025 5.05964 9.24731 4.7337 9.24731H2.26562C2.07913 9.24731 1.90272 9.16498 1.78175 9.02049C1.66246 8.87852 1.6129 8.69287 1.64482 8.51226C2.06401 6.15507 3.4753 4.07173 5.51915 2.79737C5.75017 2.65289 6.04587 2.67305 6.25588 2.84862C6.46505 3.02419 6.53477 3.30058 6.43313 3.55343ZM10 18.4946C8.90289 18.4946 7.18078 15.8064 6.8666 11.4281C6.854 11.255 6.91533 11.082 7.03545 10.9535C7.1539 10.8258 7.32107 10.7527 7.49244 10.7527H12.5067C12.6789 10.7527 12.8453 10.8258 12.9637 10.9535C13.0838 11.082 13.1452 11.255 13.1326 11.4289C12.8243 15.7418 11.0711 18.4946 10 18.4946ZM12.9637 9.04654C12.8453 9.17423 12.6789 9.24732 12.5067 9.24732H7.49328C7.32107 9.24732 7.1539 9.17423 7.03545 9.04654C6.91533 8.91718 6.854 8.74412 6.8666 8.57107C7.18078 4.19355 8.90289 1.50538 10 1.50538C11.0702 1.50538 12.8234 4.25823 13.1326 8.57191C13.1452 8.74496 13.0838 8.91801 12.9637 9.04654ZM14.48 17.2035C14.3775 17.2673 14.2624 17.2992 14.1473 17.2992C14.0037 17.2992 13.86 17.2488 13.7433 17.1514C13.5341 16.9758 13.4644 16.6994 13.566 16.4474C14.1541 14.984 14.5279 13.2166 14.648 11.3374C14.669 11.0097 14.9404 10.7527 15.2663 10.7527H17.7344C17.9209 10.7527 18.0973 10.835 18.2174 10.9795C18.3375 11.1223 18.3871 11.3071 18.3552 11.4877C17.9368 13.8449 16.5239 15.9283 14.48 17.2035Z" fill="white"/>
</svg>
