<svg width="20" height="20" viewBox="0 0 20 20" fill="none" xmlns="http://www.w3.org/2000/svg">
<g clip-path="url(#clip0)">
<path d="M19.5834 5.78246C19.5835 5.40615 19.5095 5.03351 19.3656 4.68582C19.2216 4.33812 19.0106 4.02219 18.7446 3.75606C18.4785 3.48993 18.1626 3.27882 17.815 3.13479C17.4673 2.99076 17.0947 2.91663 16.7184 2.91663H3.28092C2.90468 2.91674 2.53215 2.99095 2.18459 3.13503C1.83703 3.27911 1.52126 3.49024 1.2553 3.75635C0.989336 4.02247 0.778393 4.33837 0.634515 4.68601C0.490636 5.03365 0.416639 5.40622 0.416749 5.78246V13.3833C0.41653 13.7596 0.490446 14.1323 0.634276 14.48C0.778105 14.8277 0.98903 15.1437 1.255 15.4099C1.52098 15.6761 1.83679 15.8873 2.1844 16.0315C2.53201 16.1756 2.90461 16.2499 3.28092 16.25H16.7184C17.0948 16.25 17.4675 16.1758 17.8152 16.0317C18.1629 15.8876 18.4788 15.6764 18.7449 15.4102C19.0109 15.144 19.2219 14.828 19.3658 14.4802C19.5097 14.1324 19.5836 13.7597 19.5834 13.3833V5.78246ZM7.91675 12.8658V5.64913L13.5576 9.25829L7.91675 12.8658Z" stroke="#ffffff" stroke-linecap="round" stroke-linejoin="round"/>
</g>
<defs>
<clipPath id="clip0">
<rect width="20" height="20" fill="white"/>
</clipPath>
</defs>
</svg>
