<svg width="12" height="12" viewBox="0 0 12 12" fill="none" xmlns="http://www.w3.org/2000/svg">
<rect width="12" height="12" rx="1.875" fill="url(#paint0_linear)"/>
<path d="M6 2C7.0868 2 7.2224 2.004 7.6488 2.024C8.0748 2.044 8.3648 2.1108 8.62 2.21C8.884 2.3116 9.1064 2.4492 9.3288 2.6712C9.5322 2.87116 9.68958 3.11304 9.79 3.38C9.8888 3.6348 9.956 3.9252 9.976 4.3512C9.9948 4.7776 10 4.9132 10 6C10 7.0868 9.996 7.2224 9.976 7.6488C9.956 8.0748 9.8888 8.3648 9.79 8.62C9.68987 8.88711 9.53245 9.12905 9.3288 9.3288C9.12878 9.53213 8.88692 9.6895 8.62 9.79C8.3652 9.8888 8.0748 9.956 7.6488 9.976C7.2224 9.9948 7.0868 10 6 10C4.9132 10 4.7776 9.996 4.3512 9.976C3.9252 9.956 3.6352 9.8888 3.38 9.79C3.11293 9.68979 2.87101 9.53238 2.6712 9.3288C2.46776 9.12887 2.31037 8.88699 2.21 8.62C2.1108 8.3652 2.044 8.0748 2.024 7.6488C2.0052 7.2224 2 7.0868 2 6C2 4.9132 2.004 4.7776 2.024 4.3512C2.044 3.9248 2.1108 3.6352 2.21 3.38C2.31009 3.11287 2.46752 2.87093 2.6712 2.6712C2.87107 2.46769 3.11297 2.31029 3.38 2.21C3.6352 2.1108 3.9248 2.044 4.3512 2.024C4.7776 2.0052 4.9132 2 6 2ZM6 4C5.46957 4 4.96086 4.21071 4.58579 4.58579C4.21071 4.96086 4 5.46957 4 6C4 6.53043 4.21071 7.03914 4.58579 7.41421C4.96086 7.78929 5.46957 8 6 8C6.53043 8 7.03914 7.78929 7.41421 7.41421C7.78929 7.03914 8 6.53043 8 6C8 5.46957 7.78929 4.96086 7.41421 4.58579C7.03914 4.21071 6.53043 4 6 4ZM8.6 3.9C8.6 3.76739 8.54732 3.64021 8.45355 3.54645C8.35979 3.45268 8.23261 3.4 8.1 3.4C7.96739 3.4 7.84021 3.45268 7.74645 3.54645C7.65268 3.64021 7.6 3.76739 7.6 3.9C7.6 4.03261 7.65268 4.15979 7.74645 4.25355C7.84021 4.34732 7.96739 4.4 8.1 4.4C8.23261 4.4 8.35979 4.34732 8.45355 4.25355C8.54732 4.15979 8.6 4.03261 8.6 3.9ZM6 4.8C6.31826 4.8 6.62348 4.92643 6.84853 5.15147C7.07357 5.37652 7.2 5.68174 7.2 6C7.2 6.31826 7.07357 6.62348 6.84853 6.84853C6.62348 7.07357 6.31826 7.2 6 7.2C5.68174 7.2 5.37652 7.07357 5.15147 6.84853C4.92643 6.62348 4.8 6.31826 4.8 6C4.8 5.68174 4.92643 5.37652 5.15147 5.15147C5.37652 4.92643 5.68174 4.8 6 4.8Z" fill="white"/>
<defs>
<linearGradient id="paint0_linear" x1="9.5" y1="-2.5" x2="1.21072e-06" y2="13.5" gradientUnits="userSpaceOnUse">
<stop stop-color="#263ED3"/>
<stop offset="0.592813" stop-color="#E82D65"/>
<stop offset="0.967096" stop-color="#F57C2A"/>
</linearGradient>
</defs>
</svg>
