<svg width="12" height="12" viewBox="0 0 12 12" fill="none" xmlns="http://www.w3.org/2000/svg">
<rect width="12" height="12" rx="1.875" fill="#FF0000"/>
<path d="M9.57862 3.93675C9.75 4.605 9.75 6 9.75 6C9.75 6 9.75 7.395 9.57862 8.06325C9.48337 8.43263 9.20475 8.72325 8.85187 8.8215C8.211 9 6 9 6 9C6 9 3.79013 9 3.14812 8.8215C2.79375 8.72175 2.5155 8.4315 2.42138 8.06325C2.25 7.395 2.25 6 2.25 6C2.25 6 2.25 4.605 2.42138 3.93675C2.51663 3.56738 2.79525 3.27675 3.14812 3.1785C3.79013 3 6 3 6 3C6 3 8.211 3 8.85187 3.1785C9.20625 3.27825 9.4845 3.5685 9.57862 3.93675ZM5.25 7.3125L7.5 6L5.25 4.6875V7.3125Z" fill="white"/>
</svg>
